<mxfile host="drawio-plugin" modified="2021-07-16T08:27:53.151Z" agent="5.0 (Macintosh; Intel Mac OS X 11_4_0) AppleWebKit/537.36 (KHTML, like Gecko) Chrome/87.0.4280.141 Safari/537.36" version="14.7.4" etag="l83GQAEb-YzGdSK5ZbPz" type="embed"><diagram id="W1yrwUM6v9hNumfLIqcG" name="Page-1"><mxGraphModel dx="1691" dy="294" grid="1" gridSize="10" guides="1" tooltips="1" connect="1" arrows="1" fold="1" page="1" pageScale="1" pageWidth="850" pageHeight="1100" math="0" shadow="0"><root><mxCell id="0"/><mxCell id="1" parent="0"/><mxCell id="2" value="51" style="ellipse;whiteSpace=wrap;html=1;" vertex="1" parent="1"><mxGeometry x="210" y="50" width="40" height="40" as="geometry"/></mxCell><mxCell id="3" value="45" style="ellipse;whiteSpace=wrap;html=1;rotation=4;" vertex="1" parent="1"><mxGeometry x="120" y="160" width="40" height="40" as="geometry"/></mxCell><mxCell id="4" value="68" style="ellipse;whiteSpace=wrap;html=1;fillColor=#a20025;strokeColor=#6F0000;fontColor=#ffffff;" vertex="1" parent="1"><mxGeometry x="330" y="50" width="40" height="40" as="geometry"/></mxCell><mxCell id="5" value="71" style="ellipse;whiteSpace=wrap;html=1;fillColor=#a20025;strokeColor=#6F0000;fontColor=#ffffff;" vertex="1" parent="1"><mxGeometry x="340" y="160" width="40" height="40" as="geometry"/></mxCell><mxCell id="6" value="75" style="ellipse;whiteSpace=wrap;html=1;" vertex="1" parent="1"><mxGeometry x="405" y="160" width="40" height="40" as="geometry"/></mxCell><mxCell id="7" value="59" style="ellipse;whiteSpace=wrap;html=1;" vertex="1" parent="1"><mxGeometry x="240" y="160" width="40" height="40" as="geometry"/></mxCell><mxCell id="8" value="76" style="ellipse;whiteSpace=wrap;html=1;fillColor=#a20025;strokeColor=#6F0000;fontColor=#ffffff;" vertex="1" parent="1"><mxGeometry x="470" y="160" width="40" height="40" as="geometry"/></mxCell><mxCell id="14" value="" style="endArrow=open;endFill=1;endSize=12;html=1;" edge="1" parent="1" source="2" target="3"><mxGeometry width="160" relative="1" as="geometry"><mxPoint x="340" y="230" as="sourcePoint"/><mxPoint x="500" y="230" as="targetPoint"/></mxGeometry></mxCell><mxCell id="15" value="" style="endArrow=open;endFill=1;endSize=12;html=1;" edge="1" parent="1" source="4" target="7"><mxGeometry width="160" relative="1" as="geometry"><mxPoint x="345" y="280" as="sourcePoint"/><mxPoint x="280" y="230" as="targetPoint"/></mxGeometry></mxCell><mxCell id="16" value="" style="endArrow=open;endFill=1;endSize=12;html=1;" edge="1" parent="1" source="2" target="4"><mxGeometry width="160" relative="1" as="geometry"><mxPoint x="340" y="230" as="sourcePoint"/><mxPoint x="500" y="230" as="targetPoint"/></mxGeometry></mxCell><mxCell id="17" value="" style="endArrow=open;endFill=1;endSize=12;html=1;" edge="1" parent="1" source="6" target="5"><mxGeometry width="160" relative="1" as="geometry"><mxPoint x="340" y="230" as="sourcePoint"/><mxPoint x="500" y="230" as="targetPoint"/></mxGeometry></mxCell><mxCell id="18" value="" style="endArrow=open;endFill=1;endSize=12;html=1;" edge="1" parent="1" source="6" target="8"><mxGeometry width="160" relative="1" as="geometry"><mxPoint x="340" y="230" as="sourcePoint"/><mxPoint x="500" y="230" as="targetPoint"/></mxGeometry></mxCell><mxCell id="19" value="" style="endArrow=open;endFill=1;endSize=12;html=1;" edge="1" parent="1" source="4" target="6"><mxGeometry width="160" relative="1" as="geometry"><mxPoint x="340" y="230" as="sourcePoint"/><mxPoint x="500" y="230" as="targetPoint"/></mxGeometry></mxCell><mxCell id="20" value="51" style="ellipse;whiteSpace=wrap;html=1;fillColor=#a20025;strokeColor=#6F0000;fontColor=#ffffff;" vertex="1" parent="1"><mxGeometry x="200" y="260" width="40" height="40" as="geometry"/></mxCell><mxCell id="21" value="45" style="ellipse;whiteSpace=wrap;html=1;rotation=4;" vertex="1" parent="1"><mxGeometry x="110" y="370" width="40" height="40" as="geometry"/></mxCell><mxCell id="22" value="68" style="ellipse;whiteSpace=wrap;html=1;" vertex="1" parent="1"><mxGeometry x="320" y="260" width="40" height="40" as="geometry"/></mxCell><mxCell id="23" value="71" style="ellipse;whiteSpace=wrap;html=1;fillColor=#a20025;strokeColor=#6F0000;fontColor=#ffffff;" vertex="1" parent="1"><mxGeometry x="330" y="370" width="40" height="40" as="geometry"/></mxCell><mxCell id="24" value="75" style="ellipse;whiteSpace=wrap;html=1;" vertex="1" parent="1"><mxGeometry x="395" y="370" width="40" height="40" as="geometry"/></mxCell><mxCell id="25" value="59" style="ellipse;whiteSpace=wrap;html=1;" vertex="1" parent="1"><mxGeometry x="230" y="370" width="40" height="40" as="geometry"/></mxCell><mxCell id="26" value="76" style="ellipse;whiteSpace=wrap;html=1;fillColor=#a20025;strokeColor=#6F0000;fontColor=#ffffff;" vertex="1" parent="1"><mxGeometry x="460" y="370" width="40" height="40" as="geometry"/></mxCell><mxCell id="27" value="" style="endArrow=open;endFill=1;endSize=12;html=1;" edge="1" parent="1" source="20" target="21"><mxGeometry width="160" relative="1" as="geometry"><mxPoint x="330" y="440" as="sourcePoint"/><mxPoint x="490" y="440" as="targetPoint"/></mxGeometry></mxCell><mxCell id="28" value="" style="endArrow=open;endFill=1;endSize=12;html=1;" edge="1" parent="1" source="20" target="25"><mxGeometry width="160" relative="1" as="geometry"><mxPoint x="335" y="490" as="sourcePoint"/><mxPoint x="270" y="440" as="targetPoint"/></mxGeometry></mxCell><mxCell id="29" value="" style="endArrow=open;endFill=1;endSize=12;html=1;" edge="1" parent="1" source="22" target="20"><mxGeometry width="160" relative="1" as="geometry"><mxPoint x="490" y="440" as="sourcePoint"/><mxPoint x="330" y="440" as="targetPoint"/></mxGeometry></mxCell><mxCell id="30" value="" style="endArrow=open;endFill=1;endSize=12;html=1;" edge="1" parent="1" source="24" target="23"><mxGeometry width="160" relative="1" as="geometry"><mxPoint x="330" y="440" as="sourcePoint"/><mxPoint x="490" y="440" as="targetPoint"/></mxGeometry></mxCell><mxCell id="31" value="" style="endArrow=open;endFill=1;endSize=12;html=1;" edge="1" parent="1" source="24" target="26"><mxGeometry width="160" relative="1" as="geometry"><mxPoint x="330" y="440" as="sourcePoint"/><mxPoint x="490" y="440" as="targetPoint"/></mxGeometry></mxCell><mxCell id="32" value="" style="endArrow=open;endFill=1;endSize=12;html=1;" edge="1" parent="1" source="22" target="24"><mxGeometry width="160" relative="1" as="geometry"><mxPoint x="330" y="440" as="sourcePoint"/><mxPoint x="490" y="440" as="targetPoint"/></mxGeometry></mxCell><mxCell id="33" value="51" style="ellipse;whiteSpace=wrap;html=1;" vertex="1" parent="1"><mxGeometry x="160" y="560" width="40" height="40" as="geometry"/></mxCell><mxCell id="34" value="45" style="ellipse;whiteSpace=wrap;html=1;rotation=4;" vertex="1" parent="1"><mxGeometry y="560" width="40" height="40" as="geometry"/></mxCell><mxCell id="35" value="68" style="ellipse;whiteSpace=wrap;html=1;" vertex="1" parent="1"><mxGeometry x="280" y="450" width="40" height="40" as="geometry"/></mxCell><mxCell id="36" value="71" style="ellipse;whiteSpace=wrap;html=1;fillColor=#a20025;strokeColor=#6F0000;fontColor=#ffffff;" vertex="1" parent="1"><mxGeometry x="320" y="560" width="40" height="40" as="geometry"/></mxCell><mxCell id="37" value="75" style="ellipse;whiteSpace=wrap;html=1;" vertex="1" parent="1"><mxGeometry x="385" y="560" width="40" height="40" as="geometry"/></mxCell><mxCell id="38" value="59" style="ellipse;whiteSpace=wrap;html=1;fillColor=#a20025;strokeColor=#6F0000;fontColor=#ffffff;" vertex="1" parent="1"><mxGeometry x="220" y="560" width="40" height="40" as="geometry"/></mxCell><mxCell id="39" value="76" style="ellipse;whiteSpace=wrap;html=1;fillColor=#a20025;strokeColor=#6F0000;fontColor=#ffffff;" vertex="1" parent="1"><mxGeometry x="450" y="560" width="40" height="40" as="geometry"/></mxCell><mxCell id="40" value="" style="endArrow=open;endFill=1;endSize=12;html=1;" edge="1" parent="1" target="34"><mxGeometry width="160" relative="1" as="geometry"><mxPoint x="97.32628329346312" y="485.4718100053826" as="sourcePoint"/><mxPoint x="380" y="630" as="targetPoint"/></mxGeometry></mxCell><mxCell id="41" value="" style="endArrow=open;endFill=1;endSize=12;html=1;" edge="1" parent="1" source="33" target="38"><mxGeometry width="160" relative="1" as="geometry"><mxPoint x="325" y="680" as="sourcePoint"/><mxPoint x="260" y="630" as="targetPoint"/></mxGeometry></mxCell><mxCell id="42" value="" style="endArrow=open;endFill=1;endSize=12;html=1;" edge="1" parent="1" source="35" target="33"><mxGeometry width="160" relative="1" as="geometry"><mxPoint x="480" y="630" as="sourcePoint"/><mxPoint x="320" y="630" as="targetPoint"/></mxGeometry></mxCell><mxCell id="43" value="" style="endArrow=open;endFill=1;endSize=12;html=1;" edge="1" parent="1" source="37" target="36"><mxGeometry width="160" relative="1" as="geometry"><mxPoint x="320" y="630" as="sourcePoint"/><mxPoint x="480" y="630" as="targetPoint"/></mxGeometry></mxCell><mxCell id="44" value="" style="endArrow=open;endFill=1;endSize=12;html=1;" edge="1" parent="1" source="37" target="39"><mxGeometry width="160" relative="1" as="geometry"><mxPoint x="320" y="630" as="sourcePoint"/><mxPoint x="480" y="630" as="targetPoint"/></mxGeometry></mxCell><mxCell id="45" value="" style="endArrow=open;endFill=1;endSize=12;html=1;" edge="1" parent="1" source="35" target="37"><mxGeometry width="160" relative="1" as="geometry"><mxPoint x="320" y="630" as="sourcePoint"/><mxPoint x="480" y="630" as="targetPoint"/></mxGeometry></mxCell></root></mxGraphModel></diagram></mxfile>